<?xml version="1.0" encoding="UTF-8" standalone="no"?>
<svg
   xmlns:dc="http://purl.org/dc/elements/1.1/"
   xmlns:cc="http://creativecommons.org/ns#"
   xmlns:rdf="http://www.w3.org/1999/02/22-rdf-syntax-ns#"
   xmlns:svg="http://www.w3.org/2000/svg"
   xmlns="http://www.w3.org/2000/svg"
   viewBox="0 0 304.48001 52.866669"
   height="52.866669"
   width="304.48001"
   xml:space="preserve"
   id="svg2"
   version="1.1"><metadata
     id="metadata8"><rdf:RDF><cc:Work
         rdf:about=""><dc:format>image/svg+xml</dc:format><dc:type
           rdf:resource="http://purl.org/dc/dcmitype/StillImage" /></cc:Work></rdf:RDF></metadata><defs
     id="defs6" /><g
     transform="matrix(1.3333333,0,0,-1.3333333,0,52.866667)"
     id="g10"><g
       transform="scale(0.1)"
       id="g12"><path
         id="path14"
         style="fill:#231f20;fill-opacity:1;fill-rule:nonzero;stroke:none"
         d="m 667.688,24.9102 9.589,0.8984 -0.105,-2.5469 c 0,-2.832 0.652,-5.4179 1.945,-7.7656 1.297,-2.3477 3.446,-4.1563 6.442,-5.4375 2.996,-1.28907 6.554,-1.91797 10.687,-1.91797 5.848,0 10.317,1.27734 13.399,3.83987 3.082,2.5625 4.617,5.4883 4.617,8.789 0,2.293 -0.809,4.3907 -2.446,6.2891 -1.66,1.8633 -6.199,4.3906 -13.632,7.5898 -5.746,2.4883 -9.676,4.4141 -11.778,5.7422 -3.289,2.1602 -5.722,4.5117 -7.289,7.0586 -1.562,2.5508 -2.344,5.4492 -2.344,8.711 0,3.7617 1.032,7.1601 3.09,10.1914 2.071,3.0195 5.094,5.3359 9.063,6.9414 3.98,1.5859 8.469,2.3867 13.457,2.3867 5.961,0 10.98,-1.0039 15.082,-2.9883 4.09,-2.0039 7.062,-4.6601 8.906,-7.9883 1.844,-3.332 2.774,-6.5156 2.774,-9.5429 0,-0.3008 -0.02,-0.7891 -0.051,-1.4883 l -9.442,-0.75 c 0,2.0586 -0.179,3.6797 -0.547,4.8359 -0.664,2.0313 -1.695,3.7422 -3.089,5.1406 -1.403,1.4024 -3.321,2.5235 -5.77,3.3711 -2.441,0.8477 -5.183,1.2813 -8.211,1.2813 -5.332,0 -9.472,-1.1992 -12.43,-3.6016 -2.269,-1.832 -3.398,-4.2578 -3.398,-7.289 0,-1.8008 0.469,-3.3985 1.395,-4.8204 0.933,-1.4101 2.613,-2.8007 5.046,-4.1601 1.727,-0.9688 5.848,-2.8789 12.336,-5.75 5.25,-2.332 8.879,-4.1602 10.879,-5.4883 2.664,-1.7656 4.715,-3.9023 6.141,-6.4141 1.43,-2.5195 2.141,-5.371 2.141,-8.5585 0,-3.9688 -1.2,-7.6172 -3.614,-10.961 C 718.117,7.15625 714.785,4.57031 710.523,2.73828 706.254,0.90625 701.383,0 695.895,0 c -8.293,0 -15.051,1.80078 -20.297,5.41016 -5.243,3.60937 -7.883,10.11324 -7.91,19.50004" /><path
         id="path16"
         style="fill:#231f20;fill-opacity:1;fill-rule:nonzero;stroke:none"
         d="m 831.68,32.4023 h 29.746 c 0.039,0.9258 0.054,1.5977 0.054,1.9883 0,4.5313 -1.132,8 -3.394,10.4102 -2.27,2.4219 -5.18,3.6211 -8.738,3.6211 -3.86,0 -7.379,-1.3321 -10.559,-3.9883 -3.172,-2.6602 -5.551,-6.6719 -7.109,-12.0313 m 26.261,-13.1289 8.789,-0.9062 c -1.269,-4.3555 -4.171,-8.50392 -8.722,-12.42579 -4.539,-3.92969 -9.949,-5.8906287 -16.25,-5.8906287 -3.922,0 -7.528,0.9023437 -10.801,2.7226587 -3.281,1.80469 -5.781,4.44922 -7.488,7.91016 -1.723,3.457 -2.571,7.4062 -2.571,11.8242 0,5.793 1.34,11.4141 4.02,16.8516 2.672,5.4414 6.137,9.4922 10.398,12.1289 4.258,2.6523 8.875,3.9726 13.829,3.9726 6.335,0 11.382,-1.9609 15.164,-5.8906 3.769,-3.9297 5.656,-9.289 5.656,-16.0703 0,-2.5977 -0.227,-5.2578 -0.695,-7.9883 h -39.04 c -0.132,-1.0312 -0.199,-1.9609 -0.199,-2.8008 0,-4.9609 1.137,-8.7421 3.418,-11.3476 2.278,-2.62502 5.067,-3.92189 8.36,-3.92189 3.097,0 6.14,1.01172 9.14,3.04299 2.996,2.0234 5.332,4.9531 6.992,8.789" /><path
         id="path18"
         style="fill:#231f20;fill-opacity:1;fill-rule:nonzero;stroke:none"
         d="M 949.992,1.24609 961.07,54.2656 h 7.989 l -2.25,-10.8281 c 2.726,4.0859 5.398,7.1172 8.019,9.0781 2.61,1.9727 5.281,2.9532 8.008,2.9532 1.805,0 4.012,-0.6563 6.641,-1.9532 l -3.7,-8.3867 c -1.558,1.1367 -3.265,1.6953 -5.136,1.6953 -3.161,0 -6.403,-1.7578 -9.731,-5.2851 -3.332,-3.5313 -5.945,-9.875 -7.844,-19.0235 L 958.578,1.24609 h -8.586" /><path
         id="path20"
         style="fill:#231f20;fill-opacity:1;fill-rule:nonzero;stroke:none"
         d="m 1081.77,1.24609 -8.69,53.01951 h 8.79 l 4.54,-29.1992 c 0.5,-3.2031 1.12,-8.4101 1.85,-15.6289 1.73,3.7617 3.94,8.0664 6.64,12.9297 l 17.72,31.8984 h 9.54 L 1091.8,1.24609 h -10.03" /><path
         id="path22"
         style="fill:#231f20;fill-opacity:1;fill-rule:nonzero;stroke:none"
         d="m 1214.14,64.1992 2.14,10.2383 h 8.98 l -2.14,-10.2383 z M 1200.95,1.25 l 11.09,53.0234 h 9.03 L 1209.99,1.25 h -9.04" /><path
         id="path24"
         style="fill:#231f20;fill-opacity:1;fill-rule:nonzero;stroke:none"
         d="m 1342.41,20.5664 9.04,-0.9492 c -2.28,-6.6211 -5.5,-11.54298 -9.67,-14.75001 -4.18,-3.22266 -8.92,-4.8164087 -14.25,-4.8164087 -5.77,0 -10.43,1.8593787 -14,5.5820287 -3.58,3.73047 -5.37,8.94139 -5.37,15.63669 0,5.7852 1.14,11.4805 3.45,17.0664 2.28,5.5899 5.57,9.8516 9.86,12.7618 4.27,2.9101 9.16,4.3711 14.65,4.3711 5.68,0 10.19,-1.6133 13.52,-4.8204 3.33,-3.2109 4.99,-7.4609 4.99,-12.7617 l -8.87,-0.5898 c -0.04,3.3633 -1.01,5.9804 -2.93,7.8789 -1.92,1.8984 -4.44,2.8515 -7.56,2.8515 -3.63,0 -6.77,-1.1523 -9.44,-3.4531 -2.66,-2.289 -4.75,-5.7734 -6.26,-10.457 -1.52,-4.668 -2.27,-9.1719 -2.27,-13.5039 0,-4.5235 1,-7.918 2.99,-10.1836 2,-2.26173 4.46,-3.39454 7.39,-3.39454 2.93,0 5.73,1.125 8.41,3.33984 2.67,2.2305 4.78,5.6328 6.32,10.1914" /><path
         id="path26"
         style="fill:#231f20;fill-opacity:1;fill-rule:nonzero;stroke:none"
         d="m 1459.08,32.4023 h 29.76 c 0.03,0.9258 0.04,1.5977 0.04,1.9883 0,4.5313 -1.13,8 -3.39,10.4102 -2.26,2.4219 -5.17,3.6211 -8.74,3.6211 -3.86,0 -7.38,-1.3321 -10.56,-3.9883 -3.17,-2.6602 -5.54,-6.6719 -7.11,-12.0313 m 26.26,-13.1289 8.79,-0.9062 c -1.27,-4.3555 -4.17,-8.50392 -8.71,-12.42579 -4.55,-3.92969 -9.96,-5.8906287 -16.26,-5.8906287 -3.92,0 -7.52,0.9023437 -10.79,2.7226587 -3.29,1.80469 -5.79,4.44922 -7.5,7.91016 -1.72,3.457 -2.57,7.4062 -2.57,11.8242 0,5.793 1.34,11.4141 4.02,16.8516 2.67,5.4414 6.14,9.4922 10.41,12.1289 4.26,2.6523 8.86,3.9726 13.83,3.9726 6.32,0 11.38,-1.9609 15.15,-5.8906 3.77,-3.9297 5.66,-9.289 5.66,-16.0703 0,-2.5977 -0.23,-5.2578 -0.7,-7.9883 h -39.04 c -0.12,-1.0312 -0.2,-1.9609 -0.2,-2.8008 0,-4.9609 1.14,-8.7421 3.42,-11.3476 2.28,-2.62502 5.07,-3.92189 8.36,-3.92189 3.1,0 6.15,1.01172 9.14,3.04299 3,2.0234 5.33,4.9531 6.99,8.789" /><path
         id="path28"
         style="fill:#231f20;fill-opacity:1;fill-rule:nonzero;stroke:none"
         d="m 1575.69,19.3711 9.03,0.5469 c 0,-2.5977 0.39,-4.8125 1.2,-6.6407 0.79,-1.8281 2.28,-3.33199 4.42,-4.48824 2.15,-1.17187 4.65,-1.7539 7.52,-1.7539 3.98,0 6.99,0.80078 8.97,2.40234 2,1.5938 3.01,3.4727 3.01,5.6406 0,1.5625 -0.61,3.043 -1.81,4.4375 -1.23,1.4024 -4.23,3.1211 -9,5.1719 -4.79,2.0391 -7.83,3.4805 -9.16,4.3203 -2.24,1.3594 -3.92,2.9688 -5.04,4.8086 -1.14,1.8516 -1.7,3.9727 -1.7,6.375 0,4.1875 1.66,7.7852 4.99,10.7774 3.32,3 7.99,4.5 13.98,4.5 6.65,0 11.72,-1.543 15.2,-4.6211 3.48,-3.0782 5.27,-7.1289 5.42,-12.1602 l -8.85,-0.6016 c -0.13,3.2032 -1.26,5.7305 -3.39,7.5938 -2.13,1.8594 -5.13,2.7969 -9.04,2.7969 -3.12,0 -5.56,-0.7188 -7.28,-2.1485 -1.73,-1.4297 -2.59,-2.9804 -2.59,-4.6406 0,-1.668 0.74,-3.1289 2.23,-4.3984 1.01,-0.8633 3.59,-2.1914 7.75,-3.9922 6.91,-3 11.28,-5.3594 13.07,-7.0899 2.87,-2.7617 4.29,-6.1172 4.29,-10.0781 0,-2.6328 -0.79,-5.2109 -2.41,-7.74218 -1.61,-2.52734 -4.07,-4.54688 -7.39,-6.06641 -3.31,-1.511716 -7.21,-2.2695287 -11.7,-2.2695287 -6.13,0 -11.34,1.5156287 -15.64,4.5390587 -4.28,3.02735 -6.32,7.96096 -6.08,14.78126" /><path
         id="path30"
         style="fill:#231f20;fill-opacity:1;fill-rule:nonzero;stroke:none"
         d="m 75.918,362.285 h 58.539 L 58.1016,123.656 H 0 l 75.918,238.629" /><path
         id="path32"
         style="fill:#e91834;fill-opacity:1;fill-rule:nonzero;stroke:none"
         d="m 151.645,362.285 -19.731,-62.359 h 225.27 l 20.359,62.359 H 151.645" /><path
         id="path34"
         style="fill:none;stroke:#e91834;stroke-width:2.02999997;stroke-linecap:butt;stroke-linejoin:miter;stroke-miterlimit:4;stroke-dasharray:none;stroke-opacity:1"
         d="m 151.645,362.285 -19.731,-62.359 h 225.27 l 20.359,62.359 z" /><path
         id="path36"
         style="fill:#e91834;fill-opacity:1;fill-rule:nonzero;stroke:none"
         d="M 123.648,277.016 H 347.637 L 327.906,215.297 H 102.648 l 21,61.719" /><path
         id="path38"
         style="fill:none;stroke:#e91834;stroke-width:2.02999997;stroke-linecap:butt;stroke-linejoin:miter;stroke-miterlimit:4;stroke-dasharray:none;stroke-opacity:1"
         d="M 123.648,277.016 H 347.637 L 327.906,215.297 H 102.648 Z" /><path
         id="path40"
         style="fill:#e91834;fill-opacity:1;fill-rule:nonzero;stroke:none"
         d="M 91.8281,184.746 72.7383,123.656 H 297.996 l 19.734,61.09 H 91.8281" /><path
         id="path42"
         style="fill:none;stroke:#e91834;stroke-width:2.02999997;stroke-linecap:butt;stroke-linejoin:miter;stroke-miterlimit:4;stroke-dasharray:none;stroke-opacity:1"
         d="M 91.8281,184.746 72.7383,123.656 H 297.996 l 19.734,61.09 z" /><path
         id="path44"
         style="fill:#231f20;fill-opacity:1;fill-rule:nonzero;stroke:none"
         d="M 376.566,269.023 333.535,123.656 h 41 l 32.531,111.817 h 29.141 c 0,0 20.332,-0.336 18.981,-11.176 -1.36,-10.84 -29.141,-100.641 -29.141,-100.641 h 42.012 l 29.484,105.051 c 0,0 3.395,18.969 -7.453,29.816 -10.844,10.84 -52.184,10.84 -52.184,10.84 l -61.34,-0.34" /><path
         id="path46"
         style="fill:#231f20;fill-opacity:1;fill-rule:nonzero;stroke:none"
         d="m 522.281,269.023 19.664,-145.367 h 42.348 l 107.758,145.367 h -45.738 l -68.118,-97.929 -10.164,97.929 h -45.75" /><path
         id="path48"
         style="fill:#231f20;fill-opacity:1;fill-rule:nonzero;stroke:none"
         d="m 719.844,320.875 -11.52,-38.293 h 42.703 l 11.86,38.629 -43.043,-0.336" /><path
         id="path50"
         style="fill:#231f20;fill-opacity:1;fill-rule:nonzero;stroke:none"
         d="M 704.594,269.023 661.559,123.656 h 43.035 l 43.043,145.367 h -43.043" /><path
         id="path52"
         style="fill:#231f20;fill-opacity:1;fill-rule:nonzero;stroke:none"
         d="M 788.297,269.023 745.258,123.656 h 43.039 l 31.508,110.809 h 44.062 l 11.52,36.59 c 0,0 -35.918,3.05 -48.457,-17.617 h -1.192 l 5.418,15.585 h -42.859" /><path
         id="path54"
         style="fill:#231f20;fill-opacity:1;fill-rule:nonzero;stroke:none"
         d="m 2138.62,269.023 -43.04,-145.367 h 43.04 l 31.51,110.809 h 44.04 l 11.53,36.59 c 0,0 -35.92,3.05 -48.45,-17.617 h -1.2 l 5.43,15.585 h -42.86" /><path
         id="path56"
         style="fill:#231f20;fill-opacity:1;fill-rule:nonzero;stroke:none"
         d="m 982.902,185.781 c -9.793,-22.472 -21.203,-28.16 -34.722,-31.468 -13.52,-3.313 -46.86,1.777 -32.012,45.179 2.594,7.578 6.078,14.926 10.781,20.758 6.449,8.004 13.789,13.137 22.461,15.492 4.731,1.278 9.496,1.879 14.207,1.617 4.293,-0.242 8.531,-1.187 12.645,-2.98 7.226,-3.149 10.918,-11.031 11.765,-20.488 0.852,-9.473 -1.449,-19.664 -5.125,-28.11 m 47.238,47.68 c -3.58,16.223 -13.15,29.297 -29.66,33.723 -9.39,2.507 -18.914,3.546 -28.417,3.347 -10.446,-0.211 -20.868,-1.922 -31.075,-4.801 -18.707,-5.281 -33.972,-15.199 -46.75,-29.921 -9.312,-10.719 -15.687,-23.891 -20.039,-37.348 -24.914,-77.012 49.563,-81.082 78.789,-73.453 29.219,7.625 53.372,19.062 70.902,59.211 6.6,15.113 9.84,33.023 6.25,49.242" /><path
         id="path58"
         style="fill:#231f20;fill-opacity:1;fill-rule:nonzero;stroke:none"
         d="m 1071.59,217.52 -11.18,-37.95 h 101.31 l 12.2,37.95 h -102.33" /><path
         id="path60"
         style="fill:#e91834;fill-opacity:1;fill-rule:nonzero;stroke:none"
         d="M 1262.03,366.277 1183.4,123.66 h 59.31 l 35.93,110.805 12.87,-110.805 h 52.87 l 81.66,126.731 -39.31,-126.731 h 58.63 l 70.14,242.617 h -81.33 l -96.23,-162.656 -17.96,162.656 h -57.95" /><path
         id="path62"
         style="fill:none;stroke:#e91834;stroke-width:2.02999997;stroke-linecap:butt;stroke-linejoin:miter;stroke-miterlimit:4;stroke-dasharray:none;stroke-opacity:1"
         d="M 1262.03,366.277 1183.4,123.66 h 59.31 l 35.93,110.805 12.87,-110.805 h 52.87 l 81.66,126.731 -39.31,-126.731 h 58.63 l 70.14,242.617 h -81.33 l -96.23,-162.656 -17.96,162.656 z" /><path
         id="path64"
         style="fill:#231f20;fill-opacity:1;fill-rule:nonzero;stroke:none"
         d="m 1596.15,151.434 h -52.86 c 0,0 -14.92,-1.02 -12.88,12.882 2.03,13.891 11.52,17.282 29.82,17.282 h 44.73 z m 52.19,107.082 c -15.19,10.511 -41.68,8.812 -56.93,8.812 h -57.27 l -9.15,-29.48 h 70.14 c 0,0 32.53,1.699 19.66,-27.789 h -53.2 c 0,0 -48.46,1.699 -62.69,-29.821 -14.24,-31.511 -13.22,-53.519 16.95,-56.582 h 108.77 l 33.21,98.602 c 0,0 5.69,25.758 -9.49,36.258" /><path
         id="path66"
         style="fill:#231f20;fill-opacity:1;fill-rule:nonzero;stroke:none"
         d="m 1834.04,267.328 -9.84,-30.156 -59.98,0.336 c 0,0 -34.56,3.73 -37.94,-13.547 -3.39,-17.289 19.31,-12.883 40.32,-12.883 0,0 32.54,1.695 39.99,-9.828 4.95,-7.637 5.14,-18.367 3.92,-26.996 -2.1,-14.82 -11.22,-30.984 -23.73,-39.617 -19.95,-13.758 -41.78,-11.297 -65.01,-11.106 -17.81,0.149 -35.64,0.282 -53.47,0.149 -0.74,-0.008 -11.61,0.582 -11.83,-0.02 0.01,0.012 10.51,29.469 10.51,29.469 h 74.89 c 0,0 12.54,-1.348 21.35,3.051 8.81,4.41 17.27,25.422 -2.72,25.422 h -47.45 c 0,0 -27.43,1.347 -29.47,14.91 -2.03,13.551 6.61,40.492 15.93,49.812 9.31,9.317 23.03,21.004 50.14,21.004 h 84.39" /><path
         id="path68"
         style="fill:#231f20;fill-opacity:1;fill-rule:nonzero;stroke:none"
         d="m 1897.91,319.688 h 39.15 l -17.8,-52.614 h 40.67 l -9.92,-28.715 h -39.9 c 0,0 -24.9,-69.386 -22.36,-76.25 2.55,-6.859 4.06,-10.921 21.09,-10.921 h 13.22 l -9.4,-27.532 h -37.12 c 0,0 -18.04,-0.429 -25.65,10.754 -7.63,11.176 -2.3,28.465 -2.3,28.465 l 24.66,75.484 h -27.97 l 10.42,28.715 h 26.45 l 16.76,52.614" /><path
         id="path70"
         style="fill:#231f20;fill-opacity:1;fill-rule:nonzero;stroke:none"
         d="m 2102.01,267.59 -9.66,-30.504 h -54.4 c 0,0 -22.87,0.258 -30.24,-9.402 -7.37,-9.657 -10.17,-18.051 -10.17,-18.051 h 85.9 l -9.66,-29.727 h -85.64 c 0,0 -5.33,-15.761 0,-21.097 5.33,-5.34 12.7,-6.106 33.29,-6.106 h 43.71 l -9.39,-29.047 h -57.19 c 0,0 -26.05,-4.109 -44.47,14.309 -18.43,18.43 -2.3,61 -2.3,61 0,0 21.11,65.66 85.9,67.859 l 64.32,0.766" /><path
         id="path72"
         style="fill:#231f20;fill-opacity:1;fill-rule:nonzero;stroke:none"
         d="m 2256.53,255.902 c 0.76,-0.117 1.4,-0.172 1.92,-0.172 1.46,0 2.72,0.555 3.76,1.653 1.05,1.101 1.56,2.574 1.56,4.418 0,1.89 -0.48,3.32 -1.46,4.297 -0.98,0.98 -2.48,1.468 -4.5,1.468 h -1.28 z m -9.68,13.145 h 12.21 c 4.11,0 6.96,-0.492 8.56,-1.481 2.27,-1.414 3.4,-3.382 3.4,-5.902 0,-1.598 -0.5,-3.016 -1.49,-4.262 -1.01,-1.25 -2.51,-2.152 -4.54,-2.714 l 4.61,-8.43 c 0.69,-1.215 1.38,-2.121 2.1,-2.735 0.34,-0.293 0.82,-0.492 1.45,-0.601 v -1.149 h -8.16 l -6.91,12.407 h -1.55 v -6.676 c 0,-1.91 0.25,-3.133 0.76,-3.672 0.5,-0.539 1.6,-0.844 3.28,-0.91 v -1.149 h -14.26 v 1.149 c 1.39,0 2.3,0.23 2.7,0.707 0.56,0.652 0.84,1.941 0.84,3.875 v 15.914 c 0,1.844 -0.2,3.016 -0.59,3.523 -0.39,0.504 -1.2,0.829 -2.41,0.965 z m 12.78,7.016 c -3.51,0 -6.93,-0.895 -10.27,-2.7 -3.34,-1.797 -5.95,-4.375 -7.82,-7.734 -1.88,-3.363 -2.81,-6.852 -2.81,-10.469 0,-3.621 0.91,-7.09 2.76,-10.402 1.84,-3.317 4.42,-5.895 7.75,-7.738 3.33,-1.844 6.79,-2.766 10.39,-2.766 3.62,0 7.08,0.922 10.4,2.766 3.31,1.843 5.89,4.421 7.74,7.738 1.84,3.312 2.76,6.781 2.76,10.402 0,3.617 -0.93,7.106 -2.79,10.469 -1.88,3.359 -4.47,5.937 -7.81,7.734 -3.34,1.805 -6.77,2.7 -10.3,2.7 z m 0,3 c 4.03,0 7.94,-1.028 11.76,-3.086 3.83,-2.055 6.81,-5 8.96,-8.832 2.14,-3.836 3.22,-7.829 3.22,-11.985 0,-4.137 -1.06,-8.105 -3.17,-11.902 -2.11,-3.801 -5.07,-6.75 -8.87,-8.848 -3.8,-2.105 -7.77,-3.156 -11.9,-3.156 -4.14,0 -8.1,1.051 -11.88,3.156 -3.79,2.098 -6.74,5.047 -8.86,8.848 -2.11,3.797 -3.16,7.765 -3.16,11.902 0,4.156 1.07,8.149 3.21,11.985 2.15,3.832 5.14,6.777 8.96,8.832 3.81,2.058 7.73,3.086 11.73,3.086" /><path
         id="path74"
         style="fill:#989697;fill-opacity:1;fill-rule:nonzero;stroke:none"
         d="m 717.473,335.781 c 0,0 -54.903,103.071 -326.672,40.664 l -5.418,-25.074 c 0,0 225.008,75.231 332.09,-15.59" /><path
         id="path76"
         style="fill:#989697;fill-opacity:1;fill-rule:nonzero;stroke:none"
         d="m 373.859,25.375 c 0,0 -278.5504,-75.7969 -304.9801,77.945 H 12.6172 c 0,0 1.0195,-91.1637 139.2778,-101.32391 C 290.156,-8.17578 373.859,25.375 373.859,25.375" /></g></g></svg>